<?xml version="1.0" encoding="UTF-8"?>
<svg width="232px" height="232px" viewBox="0 0 232 232" version="1.1" xmlns="http://www.w3.org/2000/svg" xmlns:xlink="http://www.w3.org/1999/xlink">
    <title>logo-light</title>
    <g id="Page-1" stroke="none" stroke-width="1" fill="none" fill-rule="evenodd">
        <g id="logo-light" fill-rule="nonzero">
            <rect id="Rectangle" fill="#FFFFFF" x="0" y="0" width="232" height="232" rx="22"></rect>
            <path d="M88.512859,182.789773 C100.061154,182.789773 110.469535,180.158381 119.738001,174.895597 C129.006467,169.632812 136.336012,161.994318 141.726637,151.980114 C147.117262,141.965909 149.812575,129.821023 149.812575,115.545455 C149.812575,101.269886 147.117262,89.125 141.726637,79.1107955 C136.336012,69.0965909 129.006467,61.4580966 119.738001,56.1953125 C110.469535,50.9325284 100.061154,48.3011364 88.512859,48.3011364 C76.8793363,48.3011364 66.4389954,50.9325284 57.1918363,56.1953125 C47.9446772,61.4580966 40.6364385,69.0965909 35.2671204,79.1107955 C29.8978022,89.125 27.2131431,101.269886 27.2131431,115.545455 C27.2131431,129.778409 29.8978022,141.901989 35.2671204,151.916193 C40.6364385,161.930398 47.9446772,169.579545 57.1918363,174.863636 C66.4389954,180.147727 76.8793363,182.789773 88.512859,182.789773 Z M88.512859,158.308239 C81.8225181,158.308239 75.9844499,156.667614 70.9986545,153.386364 C66.012859,150.105114 62.1456715,145.289773 59.397092,138.940341 C56.6485124,132.590909 55.2742226,124.792614 55.2742226,115.545455 C55.2742226,106.298295 56.6485124,98.5 59.397092,92.1505682 C62.1456715,85.8011364 66.012859,80.9857955 70.9986545,77.7045455 C75.9844499,74.4232955 81.8225181,72.7826705 88.512859,72.7826705 C95.2031999,72.7826705 101.041268,74.4232955 106.027064,77.7045455 C111.012859,80.9857955 114.880046,85.8011364 117.628626,92.1505682 C120.377206,98.5 121.751495,106.298295 121.751495,115.545455 C121.751495,124.792614 120.377206,132.590909 117.628626,138.940341 C114.880046,145.289773 111.012859,150.105114 106.027064,153.386364 C101.041268,156.667614 95.2031999,158.308239 88.512859,158.308239 Z" id="O" fill="#5B1BF5"></path>
            <path d="M157.180498,182.789773 C166.044134,182.789773 173.821123,181.106534 180.511464,177.740057 C187.201804,174.37358 192.432628,169.579545 196.203935,163.357955 C199.975242,157.136364 201.860895,149.806818 201.860895,141.369318 L201.860895,141.369318 L201.860895,50.0909091 L174.502941,50.0909091 L174.502941,141.369318 C174.502941,145.545455 173.885043,149.06108 172.649248,151.916193 C171.413452,154.771307 169.613026,156.933949 167.247969,158.404119 C164.882912,159.87429 161.995839,160.609375 158.586748,160.609375 C155.348111,160.609375 152.546265,159.959517 150.181208,158.659801 C147.816151,157.360085 145.962458,155.485085 144.620128,153.034801 C143.277799,150.584517 142.56402,147.633523 142.478793,144.181818 L142.478793,144.181818 L114.928359,144.181818 C114.886464,152.875 116.740157,160.087358 120.490157,165.818892 C124.240157,171.550426 129.321833,175.81179 135.735185,178.602983 C142.148537,181.394176 149.296975,182.789773 157.180498,182.789773 Z" id="J" fill="#4714C0"></path>
        </g>
    </g>
</svg>