<svg id="Layer_1" enable-background="new 0 0 512 512" height="512" viewBox="0 0 512 512" width="512" xmlns="http://www.w3.org/2000/svg"><g><ellipse cx="256" cy="131.75" fill="#685e68" rx="130.363" ry="124.25"/><path d="m396 504.5h-280c-5.523 0-10-4.477-10-10v-21.448c0-49.87 40.427-90.297 90.297-90.297h119.406c49.87 0 90.297 40.427 90.297 90.297v21.448c0 5.523-4.477 10-10 10z" fill="#e94444"/><path d="m315.703 382.755h-30c49.87 0 90.297 40.427 90.297 90.297v21.448c0 5.523-4.477 10-10 10h30c5.523 0 10-4.477 10-10v-21.448c0-49.869-40.427-90.297-90.297-90.297z" fill="#d83131"/><path d="m256 473.385c67.808 0 88.165-55.94 94.101-83.839-10.603-4.372-22.217-6.79-34.398-6.79h-119.406c-12.181 0-23.795 2.418-34.398 6.79 5.936 27.898 26.293 83.839 94.101 83.839z" fill="#7a6d79"/><path d="m285.708 382.755c23.042.001 44.063 8.637 60.016 22.843 1.97-5.877 3.379-11.362 4.377-16.053-10.603-4.372-22.217-6.79-34.398-6.79z" fill="#685e68"/><path d="m226 320.612h60v97.564h-60z" fill="#ffcebf"/><path d="m256 320.612h30v97.564h-30z" fill="#ffb09e"/><path d="m226 359.247s-2.871 39.777 30 58.929c0 0-18.691 20.871-37.598 14.241-14.98-5.253-23.457-33.195-26.331-44.574-.725-2.869.428-5.878 2.877-7.539z" fill="#f3f0f3"/><path d="m286 359.247s2.871 39.777-30 58.929c0 0 18.691 20.871 37.598 14.241 14.98-5.253 23.457-33.195 26.331-44.574.725-2.869-.428-5.878-2.877-7.539z" fill="#f3f0f3"/><ellipse cx="256" cy="158.807" fill="#22b37f" rx="127.712" ry="121.096"/><g fill="#ffb09e"><path d="m172.894 220.824c0 21.879-13.38 39.615-29.885 39.615s-26.093-20.369-26.093-42.248 9.588-36.983 26.093-36.983 29.885 17.738 29.885 39.616z"/><path d="m339.106 220.824c0 21.879 13.38 39.615 29.885 39.615s26.093-20.369 26.093-42.248-9.588-36.983-26.093-36.983-29.885 17.738-29.885 39.616z"/></g><path d="m159.546 243.397v-65.633c0-53.27 43.184-96.454 96.454-96.454s96.454 43.184 96.454 96.454v65.27c0 53.371-43.265 96.636-96.636 96.636-53.17 0-96.272-43.103-96.272-96.273z" fill="#ffcebf"/><path d="m256 81.31c-5.103 0-10.112.4-15 1.163 46.146 7.206 81.455 47.124 81.455 95.292v65.27c0 48.263-35.382 88.259-81.621 95.473 4.883.763 9.887 1.163 14.985 1.163 53.371 0 96.636-43.266 96.636-96.636v-65.27c0-53.271-43.184-96.455-96.455-96.455z" fill="#ffb09e"/><path d="m256 71.337s-.517 129.955-104.805 153.964c-.935.215-1.869-.394-2.076-1.351-3.663-16.93-28.789-152.613 106.881-152.613z" fill="#7a6d79"/><path d="m256 71.337s.517 129.955 104.805 153.964c.935.215 1.869-.394 2.076-1.351 3.663-16.93 28.789-152.613-106.881-152.613z" fill="#7a6d79"/><path d="m256 71.337s111.052 27.634 82.012 146.416c6.987 3.097 14.565 5.654 22.793 7.548.935.215 1.869-.394 2.076-1.351 3.663-16.93 28.789-152.613-106.881-152.613z" fill="#685e68"/><circle cx="138.231" cy="305.051" fill="#22b37f" r="19"/><circle cx="373.769" cy="305.051" fill="#22b37f" r="19"/><g><path d="m408.691 442.684c-1.285-3.938-5.519-6.089-9.457-4.803-3.938 1.285-6.088 5.52-4.803 9.457 2.699 8.271 4.068 16.921 4.068 25.712v21.45c0 1.378-1.121 2.5-2.5 2.5h-279.999c-1.379 0-2.5-1.122-2.5-2.5v-21.45c0-31.5 17.399-58.847 43.296-72.839 3.964 14.324 11.209 32.473 24.378 47.941 18.492 21.72 43.667 32.733 74.825 32.733 31.002 0 56.086-10.907 74.556-32.417 13.329-15.524 20.643-33.815 24.624-48.163 8.926 4.843 16.988 11.323 23.682 19.209 1.483 1.748 3.596 2.646 5.722 2.646 1.715 0 3.439-.585 4.85-1.782 3.158-2.68 3.545-7.413.864-10.571-16.932-19.948-41.276-32.304-67.227-34.255-.558-.527-1.16-1.015-1.809-1.454l-27.761-18.827v-15.16c32.001-12.466 56.365-40.321 63.961-74.426 2.835 1.145 5.786 1.86 8.808 2.128v11.825c-10.97 3.243-19 13.405-19 25.412 0 14.612 11.888 26.5 26.5 26.5s26.5-11.888 26.5-26.5c0-12.008-8.03-22.169-19-25.412v-14.681c14.031-7.336 21.311-27.141 21.311-46.768 0-16.51-4.93-29.441-13.414-37.01 1.355-7.348 2.046-14.86 2.046-22.373 0-.417-.012-.831-.017-1.247.046-.167.092-.335.127-.508 1.686-8.281 2.54-16.794 2.54-25.302 0-34.178-13.633-66.574-38.387-91.221-2.937-2.923-7.686-2.913-10.606.023-2.923 2.936-2.913 7.684.022 10.607 11.991 11.939 21.025 25.92 26.753 41.075-23.732-37.152-66.692-62.022-115.644-62.022-48.899 0-91.817 24.816-115.567 61.9 17.117-44.923 62.459-77.111 115.567-77.111 22.123 0 43.808 5.647 62.71 16.333 3.604 2.038 8.182.768 10.22-2.839 2.038-3.606.768-8.181-2.839-10.22-21.15-11.955-45.387-18.274-70.091-18.274-76.018 0-137.862 59.103-137.862 131.75 0 8.715.896 17.43 2.666 25.903-.004.385-.015.768-.015 1.154 0 7.514.69 15.023 2.045 22.374-8.484 7.569-13.413 20.499-13.413 37.009 0 19.627 7.279 39.432 21.311 46.768v14.681c-10.97 3.243-19 13.405-19 25.412 0 14.612 11.888 26.5 26.5 26.5s26.5-11.888 26.5-26.5c0-12.008-8.03-22.169-19-25.412v-11.825c2.994-.266 5.918-.971 8.73-2.099 2.677 12.211 7.551 23.865 14.471 34.437 1.439 2.199 3.837 3.394 6.282 3.394 1.409 0 2.834-.396 4.101-1.226 3.466-2.269 4.437-6.917 2.168-10.383-9.442-14.424-14.433-31.208-14.433-48.537v-14.887c22.543-7.863 41.702-21.473 56.942-40.334 1.69.281 3.585.697 5.819 1.281.635.166 1.272.245 1.899.245 3.33 0 6.371-2.235 7.252-5.607 1.047-4.008-1.354-8.105-5.362-9.152-.028-.007-.054-.014-.082-.021 6.306-9.895 11.733-20.909 16.219-33.001 2.521-6.797 4.581-13.473 6.263-19.844 1.682 6.371 3.741 13.047 6.263 19.844 4.486 12.092 9.913 23.106 16.219 33.001-.028.007-.054.014-.083.021-4.008 1.047-6.408 5.144-5.361 9.152.881 3.373 3.922 5.607 7.252 5.607.627 0 1.265-.08 1.9-.245 2.243-.586 4.129-1.004 5.816-1.284 15.241 18.863 34.4 32.474 56.945 40.337v14.517c0 49.152-39.983 89.14-89.13 89.14-18.915 0-36.964-5.864-52.195-16.959-3.348-2.439-8.038-1.703-10.479 1.646-2.438 3.348-1.701 8.04 1.646 10.478 7.389 5.382 15.349 9.694 23.707 12.919v15.017l-27.763 18.826c-.653.443-1.26.936-1.822 1.468-23.977 1.785-46.255 12.215-63.047 29.637-17.649 18.311-27.369 42.407-27.369 67.848v21.45c0 9.649 7.851 17.5 17.5 17.5h280c9.649 0 17.5-7.851 17.5-17.5v-21.45c0-10.374-1.618-20.591-4.809-30.366zm-23.421-137.633c0 6.341-5.159 11.5-11.5 11.5s-11.5-5.159-11.5-11.5 5.159-11.5 11.5-11.5 11.5 5.159 11.5 11.5zm-16.28-52.111c-3.728 0-6.863-1.358-9.277-2.973.152-2.294.237-4.605.237-6.937v-10.278c.417.057.835.095 1.251.095 1.727 0 3.421-.489 4.918-1.44 2.079-1.32 3.57-3.46 4.092-5.872 1.11-5.132 3.686-18.678 4.235-35.891 9.569 3.508 13.134 16.378 13.134 28.545 0 17.082-6.953 34.751-18.59 34.751zm-233.202-94.133c0-62.637 53.927-113.596 120.212-113.596s120.212 50.959 120.212 113.596c0 5.182-.379 10.361-1.113 15.469-.253-.047-.504-.098-.76-.139-1.116-23.689-6.971-51.007-24.431-72.649-20.155-24.982-51.75-37.65-93.907-37.65s-73.752 12.667-93.907 37.65c-17.46 21.642-23.315 48.96-24.431 72.649-.255.041-.507.092-.759.139-.736-5.109-1.116-10.286-1.116-15.469zm13.942 146.244c0 6.341-5.159 11.5-11.5 11.5s-11.5-5.159-11.5-11.5 5.159-11.5 11.5-11.5 11.5 5.159 11.5 11.5zm-6.72-52.111c-11.637 0-18.59-17.668-18.59-34.75 0-12.167 3.565-25.037 13.134-28.545.549 17.213 3.125 30.759 4.235 35.891.521 2.411 2.013 4.551 4.092 5.872 1.497.951 3.191 1.44 4.918 1.44.416 0 .833-.038 1.251-.096v10.648c0 2.202.082 4.395.219 6.579-2.411 1.608-5.542 2.961-9.259 2.961zm92.515-115.834c-15.766 42.201-42.734 68.887-80.212 79.407-1.324-7.562-2.974-19.931-2.928-34.224.014-.102.034-.202.044-.305.051-.554.035-1.098-.031-1.629.314-22.374 4.921-49.061 21.369-69.45 15.937-19.753 40.924-30.467 74.341-31.902-.871 11.46-3.661 34.222-12.583 58.103zm40.95 0c-8.922-23.881-11.712-46.643-12.582-58.103 33.417 1.436 58.404 12.149 74.341 31.902 16.449 20.389 21.056 47.076 21.369 69.45-.067.53-.082 1.074-.031 1.629.01.104.03.204.044.307.045 14.292-1.604 26.66-2.928 34.222-37.48-10.521-64.448-37.206-80.213-79.407zm-20.475 328.779c-57.133 0-77.837-43.066-85.277-71.611 4.637-1.49 9.452-2.598 14.42-3.259 4.203 16.104 13.563 42.444 30.778 48.48 3.458 1.212 6.869 1.73 10.182 1.73 12.521-.002 23.57-7.415 29.897-12.747 6.327 5.333 17.375 12.747 29.898 12.747 3.312 0 6.725-.519 10.182-1.73 17.212-6.035 26.572-32.367 30.775-48.469 4.91.668 9.73 1.777 14.407 3.299-7.41 28.363-28.09 71.56-85.262 71.56zm-12.121-46.969c-5.87 4.412-14.799 9.297-22.995 6.423-7.696-2.698-16.104-17.993-21.459-39.01l19.8-13.426c1.799 12.962 7.471 32.132 24.654 46.013zm48.896-46.013 19.8 13.426c-5.354 21.016-13.763 36.311-21.459 39.01-8.198 2.875-17.128-2.012-22.996-6.423 17.184-13.881 22.856-33.051 24.655-46.013zm-36.955-25.733c7.788 0 15.376-.866 22.68-2.495v19.785c-.448 9.532-3.638 31.426-22.503 44.784-18.845-13.308-22.065-34.859-22.509-44.539.002-.079.012-.156.012-.235v-19.715c7.261 1.587 14.729 2.415 22.32 2.415z"/><path d="m248.105 268.368c2.988.78 5.441 1.17 7.895 1.17s4.906-.39 7.895-1.17c4.008-1.047 6.408-5.144 5.362-9.152-1.046-4.007-5.145-6.405-9.151-5.362-3.492.912-4.719.912-8.211 0-4.006-1.043-8.104 1.354-9.151 5.362s1.354 8.105 5.361 9.152z"/><path d="m221.5 223.132v-6c0-4.142-3.357-7.5-7.5-7.5s-7.5 3.358-7.5 7.5v6c0 4.142 3.357 7.5 7.5 7.5s7.5-3.358 7.5-7.5z"/><path d="m305.5 223.132v-6c0-4.142-3.357-7.5-7.5-7.5s-7.5 3.358-7.5 7.5v6c0 4.142 3.357 7.5 7.5 7.5s7.5-3.358 7.5-7.5z"/><path d="m236.13 284.44c-1.558 3.838.29 8.212 4.128 9.77 4.855 1.971 10.299 2.956 15.742 2.956s10.888-.985 15.742-2.956c3.838-1.558 5.686-5.933 4.128-9.771-1.557-3.837-5.93-5.687-9.771-4.128-6.134 2.49-14.063 2.491-20.199 0-3.839-1.557-8.212.291-9.77 4.129z"/></g></g></svg>